<?xml version="1.0" encoding="UTF-8"?>
<svg id="Layer_2" xmlns="http://www.w3.org/2000/svg" viewBox="0 0 611.87 611.87">
  <defs>
    <style>
      .cls-1 {
        fill: #c2c2c2;
      }
    </style>
  </defs>
  <g id="Layer_1-2" data-name="Layer_1">
    <g>
      <path class="cls-1" d="M470.8,247c-19.97,0-39.93,12.26-50.44,22.77v93.88c7.71,5.96,25.57,17.87,46.24,17.87,34.33,0,46.94-28.73,46.94-71.81s-14.01-62.7-42.74-62.7Z"/>
      <path class="cls-1" d="M459.39,0H152.48C68.27,0,0,68.27,0,152.48v306.91c0,84.21,68.27,152.48,152.48,152.48h306.91c84.21,0,152.48-68.27,152.48-152.48V152.48C611.87,68.27,543.6,0,459.39,0ZM326.48,404.29h-30.48v-218.94h-.35l-76.72,218.94h-33.63l-75.31-219.29h-.7v219.29h-29.78v-253.62h49.04l74.61,215.79h.35l74.61-215.79h48.34v253.62ZM471.15,408.49c-21.72,0-38.88-7.71-51.84-17.51v87.58h-30.83v-254.32h27.67l1.75,20.67c16.46-14.71,36.78-24.52,62.35-24.52,37.83,0,65.86,23.47,65.86,89.68,0,70.41-34.68,98.43-74.97,98.43Z"/>
    </g>
  </g>
</svg>