<?xml version="1.0" encoding="UTF-8" standalone="no"?>
<svg
   viewBox="0 0 20 20"
   xml:space="preserve"
   version="1.1"
   id="svg1"
   sodipodi:docname="question.svg"
   inkscape:version="1.4 (86a8ad7, 2024-10-11)"
   xmlns:inkscape="http://www.inkscape.org/namespaces/inkscape"
   xmlns:sodipodi="http://sodipodi.sourceforge.net/DTD/sodipodi-0.dtd"
   xmlns="http://www.w3.org/2000/svg"
   xmlns:svg="http://www.w3.org/2000/svg"><defs
   id="defs1" /><sodipodi:namedview
   id="namedview1"
   pagecolor="#505050"
   bordercolor="#eeeeee"
   borderopacity="1"
   inkscape:showpageshadow="0"
   inkscape:pageopacity="0"
   inkscape:pagecheckerboard="0"
   inkscape:deskcolor="#505050"
   inkscape:zoom="38.6"
   inkscape:cx="10"
   inkscape:cy="10"
   inkscape:window-width="1920"
   inkscape:window-height="991"
   inkscape:window-x="-9"
   inkscape:window-y="-9"
   inkscape:window-maximized="1"
   inkscape:current-layer="svg1" />
    <g
   fill="#c2c2c2"
   id="g1"
   transform="matrix(1.4285714,0,0,1.4285714,-4.2857143,-4.2857143)">
        <path
   fill="#c2c2c2"
   d="m 34,622 c -1.783,0 -3,1.5 -3,3 h 2 c 0,-0.5 0.283,-1 1,-1 0.717,0 1,0.5 1,1 0,0.247 -0.036,0.3 -0.117,0.41 -0.08,0.11 -0.254,0.26 -0.514,0.47 -0.52,0.423 -1.369,1.287 -1.369,2.62 v 0.5 h 2 v -0.5 c 0,-0.667 0.15,-0.678 0.63,-1.068 0.241,-0.196 0.568,-0.436 0.862,-0.834 C 36.786,626.199 37,625.628 37,625 c 0,-1.5 -1.217,-3 -3,-3 z m -1,8 h 2 v 2 h -2 z m 1,-10 c -3.86,0 -7,3.14 -7,7 0,3.86 3.14,7 7,7 3.86,0 7,-3.14 7,-7 0,-3.86 -3.14,-7 -7,-7 z m 0,1 c 3.32,0 6,2.68 6,6 0,3.32 -2.68,6 -6,6 -3.32,0 -6,-2.68 -6,-6 0,-3.32 2.68,-6 6,-6 z"
   transform="translate(-24,-617)"
   id="path1" />
    </g>
</svg>
