<?xml version="1.0" encoding="UTF-8" standalone="no"?>
<!-- Uploaded to: SVG Repo, www.svgrepo.com, Generator: SVG Repo Mixer Tools -->

<svg
   fill="#000000"
   width="800px"
   height="800px"
   viewBox="0 0 24 24"
   version="1.1"
   id="svg1"
   sodipodi:docname="save_floppy.svg"
   inkscape:version="1.4 (86a8ad7, 2024-10-11)"
   xmlns:inkscape="http://www.inkscape.org/namespaces/inkscape"
   xmlns:sodipodi="http://sodipodi.sourceforge.net/DTD/sodipodi-0.dtd"
   xmlns="http://www.w3.org/2000/svg"
   xmlns:svg="http://www.w3.org/2000/svg">
  <defs
     id="defs1" />
  <sodipodi:namedview
     id="namedview1"
     pagecolor="#505050"
     bordercolor="#eeeeee"
     borderopacity="1"
     inkscape:showpageshadow="0"
     inkscape:pageopacity="0"
     inkscape:pagecheckerboard="0"
     inkscape:deskcolor="#505050"
     inkscape:zoom="0.965"
     inkscape:cx="400"
     inkscape:cy="400"
     inkscape:window-width="1920"
     inkscape:window-height="991"
     inkscape:window-x="-9"
     inkscape:window-y="-9"
     inkscape:window-maximized="1"
     inkscape:current-layer="Floppy_Disk" />
  <g
     id="Floppy_Disk"
     data-name="Floppy Disk"
     style="fill:#ffffff;fill-opacity:1;stroke-width:0.3;stroke-dasharray:none;stroke:#ffffff;stroke-opacity:1;stroke-linecap:square">
    <path
       d="M 20.253408,6.8667201 15.979965,3.3758838 C 15.518516,3.0050871 14.944929,2.801791 14.352967,2.7992265 H 4.3438443 c -0.8530689,0 -1.5446178,0.6915489 -1.5446178,1.5446178 V 19.656156 c 0,0.853067 0.6915489,1.544616 1.5446178,1.544616 H 19.656156 c 0.853067,0 1.544616,-0.691549 1.544616,-1.544616 V 8.8644258 C 21.200544,8.090149 20.852799,7.3568586 20.253408,6.8667201 Z M 6.4033348,3.8289718 H 12.32437 v 1.4107508 c 0,0.2843564 -0.230517,0.5148726 -0.514874,0.5148726 H 6.9182074 c -0.2843564,0 -0.5148726,-0.2305162 -0.5148726,-0.5148726 z m 0,16.3420562 v -6.10639 c 0,-0.853068 0.691549,-1.544616 1.5446178,-1.544616 h 8.1040944 c 0.853068,0 1.544619,0.691548 1.544619,1.544616 v 6.10639 z M 20.171028,19.656156 c 0,0.284354 -0.230518,0.514872 -0.514872,0.514872 h -1.029745 v -6.10639 c -0.0039,-1.420137 -1.154226,-2.570404 -2.574364,-2.574361 H 7.9479526 c -1.4217815,0 -2.5743631,1.15258 -2.5743631,2.574361 v 6.10639 H 4.3438443 c -0.2843563,0 -0.5148725,-0.230518 -0.5148725,-0.514872 V 4.3438443 c 0,-0.2843563 0.2305162,-0.5148725 0.5148725,-0.5148725 h 1.0297452 v 1.4107508 c 0,0.8530689 0.6915491,1.5446179 1.5446179,1.5446179 h 4.8912886 c 0.85307,0 1.544619,-0.691549 1.544619,-1.5446179 V 3.8289718 h 0.998852 c 0.356527,0.00141 0.701798,0.1249843 0.978259,0.3501132 l 4.263145,3.4805389 c 0.366971,0.291789 0.579572,0.7359739 0.576657,1.2048019 z"
       id="path1"
       style="fill:#ffffff;fill-opacity:1;stroke:#ffffff;stroke-width:0.396743;stroke-linecap:square;stroke-dasharray:none;stroke-opacity:1"
       sodipodi:nodetypes="cccssssssccccssssccssssccsscccsscsssscsssscccccs" />
  </g>
</svg>
