<?xml version="1.0" encoding="UTF-8" standalone="no"?>
<!-- Uploaded to: SVG Repo, www.svgrepo.com, Generator: SVG Repo Mixer Tools -->

<svg
   fill="#000000"
   width="800px"
   height="800px"
   viewBox="0 0 24 24"
   version="1.1"
   id="svg1"
   sodipodi:docname="floppy-disk-svgrepo-com.svg"
   inkscape:version="1.4 (86a8ad7, 2024-10-11)"
   xmlns:inkscape="http://www.inkscape.org/namespaces/inkscape"
   xmlns:sodipodi="http://sodipodi.sourceforge.net/DTD/sodipodi-0.dtd"
   xmlns="http://www.w3.org/2000/svg"
   xmlns:svg="http://www.w3.org/2000/svg">
  <defs
     id="defs1" />
  <sodipodi:namedview
     id="namedview1"
     pagecolor="#505050"
     bordercolor="#eeeeee"
     borderopacity="1"
     inkscape:showpageshadow="0"
     inkscape:pageopacity="0"
     inkscape:pagecheckerboard="0"
     inkscape:deskcolor="#505050"
     inkscape:zoom="0.965"
     inkscape:cx="400"
     inkscape:cy="482.90155"
     inkscape:window-width="1920"
     inkscape:window-height="991"
     inkscape:window-x="-9"
     inkscape:window-y="-9"
     inkscape:window-maximized="1"
     inkscape:current-layer="Floppy_Disk" />
  <g
     id="Floppy_Disk"
     data-name="Floppy Disk"
     style="fill:#ffffff;fill-opacity:1;stroke-width:0.3;stroke-dasharray:none;stroke:#ffffff;stroke-opacity:1;stroke-linecap:square">
    <path
       d="M 18.486798,7.9654789 15.128069,5.2218427 C 14.765391,4.9304136 14.314579,4.7706323 13.849324,4.7686167 H 5.982615 c -0.6704728,0 -1.2139983,0.5435255 -1.2139983,1.2139983 v 12.03477 c 0,0.670472 0.5435255,1.213998 1.2139983,1.213998 h 12.03477 c 0.670472,0 1.213998,-0.543526 1.213998,-1.213998 V 9.5355833 C 19.231203,8.9270376 18.957891,8.3507051 18.486798,7.9654789 Z M 7.6012794,5.5779489 H 12.254939 V 6.686734 c 0,0.223491 -0.181175,0.4046661 -0.404666,0.4046661 H 8.0059455 c -0.223491,0 -0.4046661,-0.1811751 -0.4046661,-0.4046661 z m 0,12.8441021 v -4.79934 c 0,-0.670473 0.5435256,-1.213998 1.2139983,-1.213998 h 6.3694443 c 0.670473,0 1.213999,0.543525 1.213999,1.213998 v 4.79934 z M 18.422051,18.017385 c 0,0.22349 -0.181176,0.404666 -0.404666,0.404666 h -0.809332 v -4.79934 c -0.0031,-1.116163 -0.907168,-2.020219 -2.023331,-2.02333 H 8.8152777 c -1.1174546,0 -2.0233305,0.905875 -2.0233305,2.02333 v 4.79934 H 5.982615 c -0.223491,0 -0.4046661,-0.181176 -0.4046661,-0.404666 V 5.982615 c 0,-0.223491 0.1811751,-0.4046661 0.4046661,-0.4046661 H 6.7919472 V 6.686734 c 0,0.6704727 0.5435256,1.2139983 1.2139983,1.2139983 h 3.8443275 c 0.670473,0 1.213999,-0.5435256 1.213999,-1.2139983 V 5.5779489 h 0.785052 c 0.280213,0.00111 0.55158,0.098232 0.768866,0.2751729 l 3.350635,2.7355429 c 0.288422,0.2293327 0.455517,0.5784415 0.453226,0.9469186 z"
       id="path1"
       style="fill:#ffffff;fill-opacity:1;stroke:#ffffff;stroke-width:0.02428;stroke-linecap:square;stroke-dasharray:none;stroke-opacity:1"
       sodipodi:nodetypes="cccssssssccccssssccssssccsscccsscsssscsssscccccs" />
  </g>
</svg>
