<?xml version="1.0" encoding="UTF-8" standalone="no"?>
<!-- Uploaded to: SVG Repo, www.svgrepo.com, Generator: SVG Repo Mixer Tools -->

<svg
   fill="#000000"
   width="800px"
   height="800px"
   viewBox="0 0 24 24"
   version="1.1"
   id="svg1"
   sodipodi:docname="save_floppy.svg"
   inkscape:version="1.4 (86a8ad7, 2024-10-11)"
   xmlns:inkscape="http://www.inkscape.org/namespaces/inkscape"
   xmlns:sodipodi="http://sodipodi.sourceforge.net/DTD/sodipodi-0.dtd"
   xmlns="http://www.w3.org/2000/svg"
   xmlns:svg="http://www.w3.org/2000/svg">
  <defs
     id="defs1" />
  <sodipodi:namedview
     id="namedview1"
     pagecolor="#505050"
     bordercolor="#eeeeee"
     borderopacity="1"
     inkscape:showpageshadow="0"
     inkscape:pageopacity="0"
     inkscape:pagecheckerboard="0"
     inkscape:deskcolor="#505050"
     inkscape:zoom="0.965"
     inkscape:cx="400"
     inkscape:cy="400"
     inkscape:window-width="1920"
     inkscape:window-height="991"
     inkscape:window-x="-9"
     inkscape:window-y="-9"
     inkscape:window-maximized="1"
     inkscape:current-layer="Floppy_Disk" />
  <g
     id="Floppy_Disk"
     data-name="Floppy Disk"
     style="fill:#ffffff;fill-opacity:1;stroke-width:0.3;stroke-dasharray:none;stroke:#ffffff;stroke-opacity:1;stroke-linecap:square">
    <path
       d="M 19.48905,7.3421194 15.611376,4.1745738 C 15.192662,3.838117 14.672196,3.6536484 14.135056,3.6513214 H 5.0528903 c -0.7740652,0 -1.4015689,0.6275037 -1.4015689,1.4015689 V 18.94711 c 0,0.774064 0.6275037,1.401568 1.4015689,1.401568 H 18.94711 c 0.774064,0 1.401568,-0.627504 1.401568,-1.401568 V 9.1548151 C 20.34847,8.4522451 20.03293,7.7868656 19.48905,7.3421194 Z M 6.9216488,4.5857007 h 5.3726802 v 1.2800995 c 0,0.2580218 -0.209168,0.4671896 -0.46719,0.4671896 H 7.3888384 c -0.2580218,0 -0.4671896,-0.2091678 -0.4671896,-0.4671896 z m 0,14.8285983 V 13.87343 c 0,-0.774065 0.6275038,-1.401568 1.4015688,-1.401568 h 7.3535644 c 0.774065,0 1.40157,0.627503 1.40157,1.401568 v 5.540869 z M 19.414299,18.94711 c 0,0.25802 -0.209169,0.467189 -0.467189,0.467189 H 18.012731 V 13.87343 c -0.0036,-1.288617 -1.047332,-2.332356 -2.335949,-2.335947 H 8.3232176 c -1.2901085,0 -2.3359481,1.045838 -2.3359481,2.335947 v 5.540869 H 5.0528903 c -0.2580218,0 -0.4671896,-0.209169 -0.4671896,-0.467189 V 5.0528903 c 0,-0.2580218 0.2091678,-0.4671896 0.4671896,-0.4671896 h 0.9343792 v 1.2800995 c 0,0.7740651 0.6275038,1.4015689 1.4015689,1.4015689 h 4.4383006 c 0.774066,0 1.40157,-0.6275038 1.40157,-1.4015689 V 4.5857007 h 0.906347 c 0.323508,0.00128 0.636803,0.1134094 0.887661,0.3176888 l 3.86833,3.1582019 c 0.332985,0.2647661 0.525897,0.6678145 0.523252,1.0932237 z"
       id="path1"
       style="fill:#ffffff;fill-opacity:1;stroke:#ffffff;stroke-width:0.36;stroke-linecap:square;stroke-dasharray:none;stroke-opacity:1"
       sodipodi:nodetypes="cccssssssccccssssccssssccsscccsscsssscsssscccccs" />
  </g>
</svg>
